<svg width="93" height="22" viewBox="0 0 93 22" fill="none" xmlns="http://www.w3.org/2000/svg">
<path d="M18.7179 0.122803V21.4509H13.5909L6.047 8.17944V21.4509H0.905396V0.122803H6.047L13.5909 13.3943V0.122803H18.7179ZM29.4113 21.7439C28.1222 21.7439 26.9698 21.5437 25.9542 21.1433C24.9386 20.7332 24.0792 20.1716 23.3761 19.4587C22.6827 18.7458 22.1505 17.9255 21.7794 16.9978C21.4181 16.0701 21.2374 15.0886 21.2374 14.0535V13.4968C21.2374 12.3347 21.3986 11.2605 21.7208 10.2742C22.0431 9.27808 22.5216 8.40894 23.1564 7.66675C23.7911 6.92456 24.587 6.34839 25.5441 5.93823C26.5011 5.51831 27.6144 5.30835 28.8839 5.30835C30.007 5.30835 31.0128 5.48901 31.9015 5.85034C32.7902 6.21167 33.5421 6.72925 34.1573 7.40308C34.7823 8.0769 35.256 8.89233 35.5782 9.84937C35.9103 10.8064 36.0763 11.8806 36.0763 13.072V15.0789H23.1271V11.988H31.257V11.6072C31.2667 11.0798 31.174 10.6306 30.9786 10.2595C30.7931 9.88843 30.5197 9.60522 30.1583 9.40991C29.797 9.2146 29.3575 9.11694 28.84 9.11694C28.3029 9.11694 27.8585 9.23413 27.507 9.46851C27.1652 9.70288 26.8966 10.0251 26.7013 10.4353C26.5157 10.8357 26.3839 11.2996 26.3058 11.8269C26.2277 12.3542 26.1886 12.9109 26.1886 13.4968V14.0535C26.1886 14.6394 26.2667 15.1716 26.423 15.6501C26.589 16.1287 26.8234 16.5388 27.1261 16.8806C27.4386 17.2126 27.8097 17.4714 28.2394 17.657C28.6788 17.8425 29.1769 17.9353 29.7335 17.9353C30.4073 17.9353 31.0714 17.8083 31.7257 17.5544C32.38 17.3005 32.9415 16.8806 33.4103 16.2947L35.6515 18.9607C35.3292 19.4197 34.8702 19.864 34.2745 20.2937C33.6886 20.7234 32.9855 21.075 32.1652 21.3484C31.3448 21.6121 30.4269 21.7439 29.4113 21.7439ZM42.9025 16.7341L45.8322 5.60132H48.923L47.8243 11.1824L44.924 21.4509H42.4484L42.9025 16.7341ZM41.7452 5.60132L43.5616 16.6462L43.7667 21.4509H40.7638L37.0138 5.60132H41.7452ZM51.5304 16.4119L53.3615 5.60132H58.0929L54.3722 21.4509H51.3693L51.5304 16.4119ZM49.2745 5.60132L52.2335 16.7048L52.6876 21.4509H50.1827L47.3409 11.2117L46.2863 5.60132H49.2745ZM68.1857 16.9978C68.1857 16.7244 68.0929 16.49 67.9073 16.2947C67.7316 16.0896 67.4191 15.9041 66.9698 15.738C66.5206 15.5623 65.8907 15.3865 65.0802 15.2107C64.3087 15.0447 63.5812 14.825 62.8976 14.5515C62.2238 14.2781 61.6329 13.946 61.1251 13.5554C60.6173 13.1648 60.2169 12.7009 59.924 12.1638C59.6407 11.6267 59.4991 11.0115 59.4991 10.3181C59.4991 9.64429 59.6407 9.00952 59.924 8.41382C60.2169 7.80835 60.6417 7.27612 61.1984 6.81714C61.7648 6.34839 62.4532 5.98218 63.2638 5.71851C64.0743 5.44507 64.9972 5.30835 66.0323 5.30835C67.4581 5.30835 68.6886 5.52808 69.7238 5.96753C70.7589 6.39722 71.5548 7.00269 72.1115 7.78394C72.6779 8.55542 72.9611 9.44897 72.9611 10.4646H68.0245C68.0245 10.0642 67.9562 9.72241 67.8195 9.43921C67.6925 9.15601 67.4825 8.94116 67.1896 8.79468C66.8966 8.63843 66.506 8.5603 66.0177 8.5603C65.6759 8.5603 65.3634 8.62378 65.0802 8.75073C64.8068 8.87769 64.587 9.05347 64.421 9.27808C64.255 9.50269 64.172 9.76636 64.172 10.0691C64.172 10.2839 64.2208 10.4792 64.3185 10.655C64.4259 10.821 64.587 10.9773 64.8019 11.1238C65.0167 11.2605 65.2902 11.3875 65.6222 11.5046C65.9542 11.6121 66.3546 11.7097 66.8234 11.7976C67.8878 11.9929 68.8839 12.2712 69.8116 12.6326C70.7394 12.9939 71.4913 13.5066 72.0675 14.1707C72.6534 14.8347 72.9464 15.7283 72.9464 16.8513C72.9464 17.5544 72.7853 18.2039 72.463 18.7996C72.1407 19.3855 71.6769 19.9031 71.0714 20.3523C70.4659 20.7917 69.7384 21.1335 68.8888 21.3777C68.0392 21.6218 67.0822 21.7439 66.0177 21.7439C64.504 21.7439 63.2247 21.4753 62.1798 20.9382C61.1349 20.3914 60.3439 19.7078 59.8068 18.8875C59.2794 18.0574 59.0157 17.2175 59.0157 16.3679H63.6154C63.6349 16.8562 63.7521 17.2566 63.9669 17.5691C64.1915 17.8816 64.4894 18.1111 64.8605 18.2576C65.2316 18.4041 65.6613 18.4773 66.1495 18.4773C66.5988 18.4773 66.9698 18.4138 67.2628 18.2869C67.5656 18.1599 67.795 17.989 67.9513 17.7742C68.1075 17.5496 68.1857 17.2908 68.1857 16.9978ZM79.963 0.122803L83.4493 7.21265L86.9357 0.122803H92.795L86.8478 10.699L92.9562 21.4509H87.0382L83.4493 14.2292L79.8605 21.4509H73.9279L80.0509 10.699L74.089 0.122803H79.963Z" fill="#FFCC00"/>
</svg>
